<svg width="23" height="19" viewBox="0 0 23 19" fill="none" xmlns="http://www.w3.org/2000/svg">
<path d="M2.11969 11.2064L10.1665 18.527C10.5005 18.8308 10.9413 19 11.4 19C11.8587 19 12.2995 18.8308 12.6335 18.527L20.6803 11.2064C22.0341 9.9784 22.8 8.25566 22.8 6.45481V6.20313C22.8 3.16989 20.5512 0.58361 17.483 0.0845793C15.4523 -0.245215 13.3861 0.401355 11.9344 1.816L11.4 2.33672L10.8656 1.816C9.41391 0.401355 7.34766 -0.245215 5.31703 0.0845793C2.24883 0.58361 0 3.16989 0 6.20313V6.45481C0 8.25566 0.765937 9.9784 2.11969 11.2064Z" fill="url(#paint0_radial_223_161)"/>
<defs>
<radialGradient id="paint0_radial_223_161" cx="0" cy="0" r="1" gradientUnits="userSpaceOnUse" gradientTransform="translate(18.62 2.28) rotate(123.389) scale(20.025 24.0299)">
<stop stop-color="#FF9595"/>
<stop offset="1" stop-color="#D90000"/>
</radialGradient>
</defs>
</svg>
