<svg width="24" height="19" viewBox="0 0 24 19" fill="none" xmlns="http://www.w3.org/2000/svg">
<path d="M2.86969 11.2064L10.9165 18.527C11.2505 18.8308 11.6913 19 12.15 19C12.6087 19 13.0495 18.8308 13.3835 18.527L21.4303 11.2064C22.7841 9.9784 23.55 8.25566 23.55 6.45481V6.20313C23.55 3.16989 21.3012 0.58361 18.233 0.0845793C16.2023 -0.245215 14.1361 0.401355 12.6844 1.816L12.15 2.33672L11.6156 1.816C10.1639 0.401355 8.09766 -0.245215 6.06703 0.0845793C2.99883 0.58361 0.75 3.16989 0.75 6.20313V6.45481C0.75 8.25566 1.51594 9.9784 2.86969 11.2064Z" fill="black"/>
</svg>
