<svg width="23" height="19" viewBox="0 0 23 19" fill="none" xmlns="http://www.w3.org/2000/svg">
<path d="M22.55 8.82143C22.55 13.6944 17.6261 17.6429 11.5507 17.6429C9.95664 17.6429 8.44422 17.3714 7.0779 16.8837C6.5666 17.2527 5.73305 17.7574 4.74483 18.1815C3.71364 18.6225 2.47191 19 1.23878 19C0.959502 19 0.710298 18.8346 0.602883 18.5801C0.495467 18.3257 0.55562 18.0373 0.748968 17.8422L0.761858 17.8295C0.774748 17.8167 0.791934 17.7998 0.817714 17.7701C0.864977 17.7192 0.938019 17.6386 1.02825 17.5283C1.20441 17.3163 1.44072 17.0025 1.68134 16.6123C2.111 15.9083 2.51918 14.9837 2.60081 13.9446C1.31183 12.5027 0.551323 10.7342 0.551323 8.82143C0.551323 3.94844 5.47526 0 11.5507 0C17.6261 0 22.55 3.94844 22.55 8.82143Z" fill="black"/>
</svg>
