<svg width="27" height="27" viewBox="0 0 27 27" fill="none" xmlns="http://www.w3.org/2000/svg">
<g clip-path="url(#clip0_553_166)">
<path opacity="0.4" d="M16.0312 3.375C15.034 3.375 14.0466 3.57142 13.1252 3.95304C12.2039 4.33466 11.3668 4.89401 10.6617 5.59916C9.95651 6.3043 9.39716 7.14143 9.01554 8.06275C8.63392 8.98406 8.4375 9.97152 8.4375 10.9688C8.4375 11.966 8.63392 12.9534 9.01554 13.8748C9.39716 14.7961 9.95651 15.6332 10.6617 16.3383C11.3668 17.0435 12.2039 17.6028 13.1252 17.9845C14.0466 18.3661 15.034 18.5625 16.0312 18.5625C17.0285 18.5625 18.0159 18.3661 18.9373 17.9845C19.8586 17.6028 20.6957 17.0435 21.4008 16.3383C22.106 15.6332 22.6653 14.7961 23.047 13.8748C23.4286 12.9534 23.625 11.966 23.625 10.9688C23.625 9.97152 23.4286 8.98406 23.047 8.06275C22.6653 7.14143 22.106 6.3043 21.4008 5.59916C20.6957 4.89401 19.8586 4.33466 18.9373 3.95304C18.0159 3.57142 17.0285 3.375 16.0312 3.375ZM16.0312 21.9375C13.1222 21.9375 10.3322 20.7819 8.27517 18.7248C6.21813 16.6678 5.0625 13.8778 5.0625 10.9688C5.0625 8.05966 6.21813 5.26971 8.27517 3.21267C10.3322 1.15563 13.1222 0 16.0312 0C18.9403 0 21.7303 1.15563 23.7873 3.21267C25.8444 5.26971 27 8.05966 27 10.9688C27 13.8778 25.8444 16.6678 23.7873 18.7248C21.7303 20.7819 18.9403 21.9375 16.0312 21.9375Z" fill="black"/>
<path d="M9.56073 19.8281L2.87929 26.5042C2.22011 27.1634 1.1496 27.1634 0.490417 26.5042C-0.168762 25.8451 -0.168762 24.7746 0.490417 24.1154L7.17186 17.4392C7.84159 18.3515 8.64843 19.1583 9.56073 19.8281Z" fill="black"/>
</g>
<defs>
<clipPath id="clip0_553_166">
<rect width="27" height="27" fill="white" transform="matrix(-1 0 0 1 27 0)"/>
</clipPath>
</defs>
</svg>
