<svg width="54" height="54" viewBox="0 0 54 54" fill="none" xmlns="http://www.w3.org/2000/svg">
<circle cx="27" cy="27" r="27" fill="url(#paint0_radial_786_876)"/>
<g clip-path="url(#clip0_786_876)">
<path opacity="0.4" d="M37.4027 16.2405C37.8367 16.5413 38.0644 17.0612 37.9828 17.5812L35.2328 35.4562C35.1683 35.873 34.9148 36.2382 34.5453 36.4445C34.1757 36.6507 33.7332 36.6765 33.3421 36.5132L25.625 33.3034V32.732L32.3582 23.9835C32.5816 23.6956 32.5386 23.2788 32.2593 23.0425C31.98 22.8062 31.5675 22.8234 31.314 23.0898L23.6828 31.0648L23.0769 31.6706C22.948 31.7995 22.875 31.9757 22.875 32.1562L21.6589 31.6491L16.8464 29.6425C16.3609 29.4405 16.0343 28.9851 16.0043 28.4609C15.9742 27.9366 16.2406 27.4425 16.6961 27.1804L35.9461 16.1804C36.4058 15.9183 36.973 15.9441 37.407 16.2405H37.4027Z" fill="white"/>
<path d="M32.3582 23.9837C32.5773 23.6958 32.5387 23.2876 32.268 23.047C31.9973 22.8064 31.5848 22.8192 31.327 23.0771L23.6355 30.7685L23.077 31.3271C22.948 31.456 22.875 31.6321 22.875 31.8126V32.1564V34.5626V36.6251C22.875 37.1923 23.223 37.6993 23.7473 37.9056C24.2715 38.1118 24.873 37.9743 25.2598 37.5575L28.2031 34.3778L25.625 33.3036V32.7321L32.3582 23.9837Z" fill="white"/>
</g>
<defs>
<radialGradient id="paint0_radial_786_876" cx="0" cy="0" r="1" gradientUnits="userSpaceOnUse" gradientTransform="translate(44.5 10) rotate(115.925) scale(40.0281)">
<stop stop-color="#646464"/>
<stop offset="1"/>
</radialGradient>
<clipPath id="clip0_786_876">
<rect width="22" height="22" fill="white" transform="translate(16 16)"/>
</clipPath>
</defs>
</svg>
